<svg width="39" height="31" viewBox="0 0 39 31" fill="none" xmlns="http://www.w3.org/2000/svg">
<path opacity="0.4" d="M22.7656 30.5156H20.7656V32.5156H22.7656V30.5156ZM22.7656 18.6562L20.8441 18.1015L20.7656 18.3733V18.6562H22.7656ZM27.9219 0.796875V-1.20312H26.4176L26.0004 0.242106L27.9219 0.796875ZM35.6094 0.796875L37.5668 1.2073L38.0722 -1.20312H35.6094V0.796875ZM31.9531 18.2344L29.9957 17.8239L29.4903 20.2344H31.9531V18.2344ZM38.2812 18.2344H40.2812V16.2344H38.2812V18.2344ZM38.2812 30.5156V32.5156H40.2812V30.5156H38.2812ZM0.921875 30.5156H-1.07812V32.5156H0.921875V30.5156ZM0.921875 18.6562L-0.999643 18.1015L-1.07812 18.3733V18.6562H0.921875ZM6.07812 0.796875V-1.20312H4.57387L4.15661 0.242106L6.07812 0.796875ZM13.7656 0.796875L15.7231 1.2073L16.2285 -1.20312H13.7656V0.796875ZM10.1094 18.2344L8.15194 17.8239L7.64653 20.2344H10.1094V18.2344ZM16.4375 18.2344H18.4375V16.2344H16.4375V18.2344ZM16.4375 30.5156V32.5156H18.4375V30.5156H16.4375ZM24.7656 30.5156V18.6562H20.7656V30.5156H24.7656ZM24.6871 19.211L29.8434 1.35164L26.0004 0.242106L20.8441 18.1015L24.6871 19.211ZM27.9219 2.79688H35.6094V-1.20312H27.9219V2.79688ZM33.6519 0.386445L29.9957 17.8239L33.9106 18.6448L37.5668 1.2073L33.6519 0.386445ZM31.9531 20.2344H38.2812V16.2344H31.9531V20.2344ZM36.2812 18.2344V30.5156H40.2812V18.2344H36.2812ZM38.2812 28.5156H22.7656V32.5156H38.2812V28.5156ZM2.92188 30.5156V18.6562H-1.07812V30.5156H2.92188ZM2.84339 19.211L7.99964 1.35164L4.15661 0.242106L-0.999643 18.1015L2.84339 19.211ZM6.07812 2.79688H13.7656V-1.20312H6.07812V2.79688ZM11.8082 0.386445L8.15194 17.8239L12.0668 18.6448L15.7231 1.2073L11.8082 0.386445ZM10.1094 20.2344H16.4375V16.2344H10.1094V20.2344ZM14.4375 18.2344V30.5156H18.4375V18.2344H14.4375ZM16.4375 28.5156H0.921875V32.5156H16.4375V28.5156Z" fill="#767676"/>
</svg>
