<svg width="39" height="31" viewBox="0 0 39 31" fill="none" xmlns="http://www.w3.org/2000/svg">
<path opacity="0.4" d="M16.2344 0.484363L18.2344 0.484363L18.2344 -1.51564L16.2344 -1.51564L16.2344 0.484363ZM16.2344 12.3437L18.1559 12.8985L18.2344 12.6267L18.2344 12.3437L16.2344 12.3437ZM11.0781 30.2031L11.0781 32.2031L12.5824 32.2031L12.9997 30.7579L11.0781 30.2031ZM3.39063 30.2031L1.4332 29.7927L0.927782 32.2031L3.39063 32.2031L3.39063 30.2031ZM7.04688 12.7656L9.00431 13.176L9.50972 10.7656L7.04688 10.7656L7.04688 12.7656ZM0.718754 12.7656L-1.28125 12.7656L-1.28125 14.7656L0.718754 14.7656L0.718754 12.7656ZM0.718755 0.484362L0.718755 -1.51564L-1.28124 -1.51564L-1.28124 0.484362L0.718755 0.484362ZM38.0781 0.484365L40.0781 0.484365L40.0781 -1.51563L38.0781 -1.51563L38.0781 0.484365ZM38.0781 12.3437L39.9996 12.8985L40.0781 12.6267L40.0781 12.3437L38.0781 12.3437ZM32.9219 30.2031L32.9219 32.2031L34.4261 32.2031L34.8434 30.7579L32.9219 30.2031ZM25.2344 30.2031L23.2769 29.7927L22.7715 32.2031L25.2344 32.2031L25.2344 30.2031ZM28.8906 12.7656L30.8481 13.176L31.3535 10.7656L28.8906 10.7656L28.8906 12.7656ZM22.5625 12.7656L20.5625 12.7656L20.5625 14.7656L22.5625 14.7656L22.5625 12.7656ZM22.5625 0.484364L22.5625 -1.51564L20.5625 -1.51564L20.5625 0.484364L22.5625 0.484364ZM14.2344 0.484363L14.2344 12.3437L18.2344 12.3437L18.2344 0.484363L14.2344 0.484363ZM14.3129 11.789L9.1566 29.6483L12.9997 30.7579L18.1559 12.8985L14.3129 11.789ZM11.0781 28.2031L3.39063 28.2031L3.39063 32.2031L11.0781 32.2031L11.0781 28.2031ZM5.34806 30.6135L9.00431 13.176L5.08945 12.3552L1.4332 29.7927L5.34806 30.6135ZM7.04688 10.7656L0.718754 10.7656L0.718754 14.7656L7.04688 14.7656L7.04688 10.7656ZM2.71875 12.7656L2.71876 0.484362L-1.28124 0.484362L-1.28125 12.7656L2.71875 12.7656ZM0.718755 2.48436L16.2344 2.48436L16.2344 -1.51564L0.718755 -1.51564L0.718755 2.48436ZM36.0781 0.484365L36.0781 12.3437L40.0781 12.3437L40.0781 0.484365L36.0781 0.484365ZM36.1566 11.789L31.0004 29.6483L34.8434 30.7579L39.9996 12.8985L36.1566 11.789ZM32.9219 28.2031L25.2344 28.2031L25.2344 32.2031L32.9219 32.2031L32.9219 28.2031ZM27.1918 30.6135L30.8481 13.176L26.9332 12.3552L23.2769 29.7927L27.1918 30.6135ZM28.8906 10.7656L22.5625 10.7656L22.5625 14.7656L28.8906 14.7656L28.8906 10.7656ZM24.5625 12.7656L24.5625 0.484364L20.5625 0.484364L20.5625 12.7656L24.5625 12.7656ZM22.5625 2.48436L38.0781 2.48437L38.0781 -1.51563L22.5625 -1.51564L22.5625 2.48436Z" fill="#767676"/>
</svg>
