<svg width="50" height="50" viewBox="0 0 50 50" fill="none" xmlns="http://www.w3.org/2000/svg">
<path d="M25.0003 45.8334C22.1184 45.8334 19.41 45.2862 16.8753 44.1917C14.3406 43.0973 12.1357 41.6133 10.2607 39.7397C8.38574 37.8647 6.90171 35.6598 5.80866 33.1251C4.7156 30.5904 4.16838 27.882 4.16699 25.0001C4.16699 22.1181 4.71421 19.4098 5.80866 16.8751C6.9031 14.3404 8.38713 12.1355 10.2607 10.2605C12.1357 8.3855 14.3406 6.90147 16.8753 5.80842C19.41 4.71536 22.1184 4.16814 25.0003 4.16675C27.8823 4.16675 30.5906 4.71397 33.1253 5.80842C35.66 6.90286 37.8649 8.38689 39.7399 10.2605C41.6149 12.1355 43.0996 14.3404 44.1941 16.8751C45.2885 19.4098 45.8351 22.1181 45.8337 25.0001C45.8337 27.882 45.2864 30.5904 44.192 33.1251C43.0975 35.6598 41.6135 37.8647 39.7399 39.7397C37.8649 41.6147 35.66 43.0994 33.1253 44.1938C30.5906 45.2883 27.8823 45.8348 25.0003 45.8334ZM13.1774 36.823L25.0003 25.0001V8.33342C20.3475 8.33342 16.4066 9.948 13.1774 13.1772C9.94824 16.4063 8.33366 20.3473 8.33366 25.0001C8.33366 27.2223 8.75033 29.3577 9.58366 31.4063C10.417 33.4549 11.6149 35.2605 13.1774 36.823Z" fill="white"/>
</svg>
