<svg width="52" height="50" viewBox="0 0 52 50" fill="none" xmlns="http://www.w3.org/2000/svg">
<path d="M25.9218 45.8334C13.9913 45.8334 4.32031 36.5063 4.32031 25.0001C4.32031 13.4938 13.9913 4.16675 25.9218 4.16675C37.8524 4.16675 47.5234 13.4938 47.5234 25.0001C47.5234 36.5063 37.8524 45.8334 25.9218 45.8334ZM25.9218 41.6668C30.5051 41.6668 34.9007 39.9108 38.1415 36.7852C41.3824 33.6596 43.2031 29.4204 43.2031 25.0001C43.2031 20.5798 41.3824 16.3406 38.1415 13.215C34.9007 10.0894 30.5051 8.33342 25.9218 8.33342C21.3386 8.33342 16.943 10.0894 13.7022 13.215C10.4613 16.3406 8.64062 20.5798 8.64062 25.0001C8.64062 29.4204 10.4613 33.6596 13.7022 36.7852C16.943 39.9108 21.3386 41.6668 25.9218 41.6668ZM18.3613 29.1667H30.2422C30.5286 29.1667 30.8033 29.057 31.0059 28.8617C31.2084 28.6663 31.3222 28.4014 31.3222 28.1251C31.3222 27.8488 31.2084 27.5839 31.0059 27.3885C30.8033 27.1932 30.5286 27.0834 30.2422 27.0834H21.6015C20.1693 27.0834 18.7957 26.5347 17.7829 25.5579C16.7701 24.5812 16.2012 23.2564 16.2012 21.8751C16.2012 20.4937 16.7701 19.169 17.7829 18.1922C18.7957 17.2155 20.1693 16.6667 21.6015 16.6667H23.7617V12.5001H28.082V16.6667H33.4824V20.8334H21.6015C21.3151 20.8334 21.0404 20.9432 20.8378 21.1385C20.6353 21.3339 20.5215 21.5988 20.5215 21.8751C20.5215 22.1514 20.6353 22.4163 20.8378 22.6117C21.0404 22.807 21.3151 22.9167 21.6015 22.9167H30.2422C31.6744 22.9167 33.048 23.4655 34.0608 24.4422C35.0736 25.419 35.6425 26.7437 35.6425 28.1251C35.6425 29.5064 35.0736 30.8312 34.0608 31.8079C33.048 32.7847 31.6744 33.3334 30.2422 33.3334H28.082V37.5001H23.7617V33.3334H18.3613V29.1667Z" fill="white"/>
</svg>
