<svg width="52" height="50" viewBox="0 0 52 50" fill="none" xmlns="http://www.w3.org/2000/svg">
<path d="M25.9219 24.9999C23.5457 24.9999 21.5115 24.1839 19.8194 22.552C18.1273 20.9201 17.2812 18.9583 17.2812 16.6666C17.2812 14.3749 18.1273 12.4131 19.8194 10.7812C21.5115 9.14922 23.5457 8.33325 25.9219 8.33325C28.298 8.33325 30.3322 9.14922 32.0243 10.7812C33.7164 12.4131 34.5625 14.3749 34.5625 16.6666C34.5625 18.9583 33.7164 20.9201 32.0243 22.552C30.3322 24.1839 28.298 24.9999 25.9219 24.9999ZM8.64062 41.6666V35.8333C8.64062 34.6527 8.95601 33.5673 9.58677 32.577C10.2175 31.5867 11.0542 30.8319 12.0969 30.3124C14.329 29.236 16.5972 28.4284 18.9014 27.8895C21.2055 27.3506 23.5457 27.0819 25.9219 27.0833C28.298 27.0833 30.6382 27.3527 32.9424 27.8916C35.2465 28.4305 37.5147 29.2374 39.7468 30.3124C40.7909 30.8333 41.6283 31.5888 42.2591 32.5791C42.8899 33.5694 43.2045 34.6541 43.2031 35.8333V41.6666H8.64062Z" fill="white"/>
</svg>
