<svg width="69" height="55" viewBox="0 0 69 55" fill="none" xmlns="http://www.w3.org/2000/svg">
<path opacity="0.4" d="M40.2759 54.5024H38.2759V56.5024H40.2759V54.5024ZM40.2759 32.8838L38.3544 32.329L38.2759 32.6009V32.8838H40.2759ZM49.6753 0.327637V-1.67236H48.171L47.7538 -0.227131L49.6753 0.327637ZM63.689 0.327637L65.6464 0.738068L66.1518 -1.67236H63.689V0.327637ZM57.0239 32.1147L55.0665 31.7043L54.5611 34.1147H57.0239V32.1147ZM68.5596 32.1147H70.5596V30.1147H68.5596V32.1147ZM68.5596 54.5024V56.5024H70.5596V54.5024H68.5596ZM0.456543 54.5024H-1.54346V56.5024H0.456543V54.5024ZM0.456543 32.8838L-1.46497 32.329L-1.54346 32.6009V32.8838H0.456543ZM9.85596 0.327637V-1.67236H8.3517L7.93444 -0.227131L9.85596 0.327637ZM23.8696 0.327637L25.8271 0.738068L26.3325 -1.67236H23.8696V0.327637ZM17.2046 32.1147L15.2472 31.7043L14.7417 34.1147H17.2046V32.1147ZM28.7402 32.1147H30.7402V30.1147H28.7402V32.1147ZM28.7402 54.5024V56.5024H30.7402V54.5024H28.7402ZM42.2759 54.5024V32.8838H38.2759V54.5024H42.2759ZM42.1974 33.4386L51.5968 0.882404L47.7538 -0.227131L38.3544 32.329L42.1974 33.4386ZM49.6753 2.32764H63.689V-1.67236H49.6753V2.32764ZM61.7315 -0.0827942L55.0665 31.7043L58.9814 32.5252L65.6464 0.738068L61.7315 -0.0827942ZM57.0239 34.1147H68.5596V30.1147H57.0239V34.1147ZM66.5596 32.1147V54.5024H70.5596V32.1147H66.5596ZM68.5596 52.5024H40.2759V56.5024H68.5596V52.5024ZM2.45654 54.5024V32.8838H-1.54346V54.5024H2.45654ZM2.37806 33.4386L11.7775 0.882404L7.93444 -0.227131L-1.46497 32.329L2.37806 33.4386ZM9.85596 2.32764H23.8696V-1.67236H9.85596V2.32764ZM21.9122 -0.0827942L15.2472 31.7043L19.162 32.5252L25.8271 0.738068L21.9122 -0.0827942ZM17.2046 34.1147H28.7402V30.1147H17.2046V34.1147ZM26.7402 32.1147V54.5024H30.7402V32.1147H26.7402ZM28.7402 52.5024H0.456543V56.5024H28.7402V52.5024Z" fill="#767676"/>
</svg>
