<svg width="50" height="50" viewBox="0 0 70 70" fill="none" xmlns="http://www.w3.org/2000/svg">
<rect width="70" height="70" rx="35" fill="white"/>
<path d="M41.25 32.9167V20.4167L35 14.1667L28.75 20.4167V24.5834H16.25V53.75H53.75V32.9167H41.25ZM24.5833 49.5834H20.4167V45.4167H24.5833V49.5834ZM24.5833 41.25H20.4167V37.0834H24.5833V41.25ZM24.5833 32.9167H20.4167V28.75H24.5833V32.9167ZM37.0833 49.5834H32.9167V45.4167H37.0833V49.5834ZM37.0833 41.25H32.9167V37.0834H37.0833V41.25ZM37.0833 32.9167H32.9167V28.75H37.0833V32.9167ZM37.0833 24.5834H32.9167V20.4167H37.0833V24.5834ZM49.5833 49.5834H45.4167V45.4167H49.5833V49.5834ZM49.5833 41.25H45.4167V37.0834H49.5833V41.25Z" fill="black"/>
</svg>
