<svg width="50" height="50" viewBox="0 0 70 70" fill="none" xmlns="http://www.w3.org/2000/svg">
<rect width="70" height="70" rx="35" fill="white"/>
<path d="M18.3337 51.6667C17.1878 51.6667 16.2066 51.2583 15.3899 50.4417C14.5732 49.625 14.1656 48.6445 14.167 47.5V22.5C14.167 21.3542 14.5753 20.3729 15.392 19.5563C16.2087 18.7396 17.1892 18.332 18.3337 18.3333H51.667C52.8128 18.3333 53.7941 18.7417 54.6107 19.5583C55.4274 20.375 55.8351 21.3556 55.8337 22.5V47.5C55.8337 48.6458 55.4253 49.6271 54.6087 50.4438C53.792 51.2604 52.8114 51.6681 51.667 51.6667H18.3337ZM35.0003 37.0833L51.667 26.6667V22.5L35.0003 32.9167L18.3337 22.5V26.6667L35.0003 37.0833Z" fill="black"/>
</svg>
