<svg width="50" height="50" viewBox="0 0 70 70" fill="none" xmlns="http://www.w3.org/2000/svg">
<rect width="70" height="70" rx="35" fill="white"/>
<path opacity="0.3" d="M49.5833 46.3958C47.75 46.25 45.9375 45.9375 44.1667 45.4583L41.6875 47.9375C44.1875 48.7917 46.8542 49.3333 49.6042 49.5V46.3958H49.5833ZM23.625 20.4167H20.5C20.6875 23.1667 21.2292 25.8125 22.0625 28.3333L24.5625 25.8333C24.0625 24.0833 23.75 22.2708 23.625 20.4167Z" fill="black"/>
<path d="M51.6667 53.75C52.8125 53.75 53.75 52.8125 53.75 51.6667V44.3958C53.75 43.25 52.8125 42.3125 51.6667 42.3125C49.0833 42.3125 46.5625 41.8958 44.2292 41.125C44.0223 41.05 43.8032 41.0147 43.5833 41.0208C43.0417 41.0208 42.5208 41.2292 42.1042 41.625L37.5208 46.2083C31.6155 43.1883 26.8117 38.3845 23.7917 32.4792L28.375 27.8958C28.9583 27.3125 29.125 26.5 28.8958 25.7708C28.1055 23.371 27.7046 20.86 27.7083 18.3333C27.7083 17.1875 26.7708 16.25 25.625 16.25H18.3333C17.1875 16.25 16.25 17.1875 16.25 18.3333C16.25 37.8958 32.1042 53.75 51.6667 53.75ZM44.1667 45.4583C45.9375 45.9583 47.75 46.2708 49.5833 46.3958V49.5C46.8333 49.3125 44.1875 48.7708 41.6667 47.9375L44.1667 45.4583ZM20.4792 20.4167H23.6042C23.7403 22.2431 24.0614 24.0509 24.5625 25.8125L22.0625 28.3125C21.2083 25.8125 20.6667 23.1667 20.4792 20.4167Z" fill="black"/>
</svg>
