<svg width="70" height="70" viewBox="0 0 70 70" fill="none" xmlns="http://www.w3.org/2000/svg">
<path d="M41.8326 40.8535L44.9366 41.1793V66.4453L36.3627 57.2899V42.7245L38.8529 43.9406L41.8326 40.8535ZM28.1675 40.8535L25.0618 41.1793V66.4453L33.6356 57.2899V42.7245L31.1455 43.9406L28.1675 40.8535ZM51.6804 25.0242L52.6849 28.5206L49.6696 30.5536L49.417 34.1864L45.8883 35.0648L44.4114 38.389L40.7938 38.0069L38.2679 40.6164L35 39.0199L31.7322 40.6164L29.2063 37.9982L25.5887 38.3804L24.1118 35.0563L20.583 34.1864L20.3305 30.5587L17.3066 28.5188L18.3112 25.0225L16.1792 22.0771L18.318 19.1349L17.3066 15.6454L20.3237 13.6124L20.5762 9.98457L24.1118 9.11477L25.5887 5.79072L29.2063 6.17271L31.7322 3.55469L35 5.15115L38.2679 3.55469L40.7938 6.17271L44.4114 5.79072L45.8883 9.11477L49.417 9.99318L49.6696 13.6209L52.6849 15.6539L51.6804 19.1503L53.8209 22.0771L51.6804 25.0242ZM44.9519 22.0771C44.9519 20.1236 44.3727 18.214 43.2874 16.5898C42.2021 14.9656 40.6596 13.6996 38.8548 12.9521C37.05 12.2045 35.0641 12.0089 33.1482 12.39C31.2323 12.7711 29.4724 13.7118 28.0911 15.0931C26.7098 16.4744 25.7691 18.2343 25.388 20.1502C25.0069 22.0661 25.2025 24.052 25.9501 25.8568C26.6976 27.6615 27.9636 29.2041 29.5878 30.2894C31.2121 31.3746 33.1216 31.9539 35.0751 31.9539C37.6933 31.9498 40.2032 30.9079 42.0546 29.0565C43.9059 27.2052 44.9478 24.6953 44.9519 22.0771ZM35.0751 14.929C33.6614 14.929 32.2794 15.3482 31.1039 16.1336C29.9285 16.9191 29.0123 18.0354 28.4713 19.3415C27.9303 20.6476 27.7887 22.0848 28.0645 23.4714C28.3403 24.8579 29.0211 26.1316 30.0207 27.1312C31.0203 28.1309 32.294 28.8117 33.6805 29.0875C35.0671 29.3633 36.5043 29.2218 37.8104 28.6808C39.1165 28.1398 40.2329 27.2237 41.0183 26.0482C41.8038 24.8728 42.223 23.4908 42.223 22.0771C42.2176 20.1835 41.4626 18.369 40.1232 17.0305C38.7837 15.692 36.9687 14.9383 35.0751 14.9342V14.929Z" fill="#057CF2" fill-opacity="0.6"/>
</svg>
