<svg width="70" height="70" viewBox="0 0 70 70" fill="none" xmlns="http://www.w3.org/2000/svg">
<g opacity="0.8">
<path d="M59.0625 11.4844H10.9375C9.92222 11.4844 8.94852 11.8877 8.23061 12.6056C7.51269 13.3235 7.10938 14.2972 7.10938 15.3125V54.6875C7.10938 55.7028 7.51269 56.6765 8.23061 57.3944C8.94852 58.1123 9.92222 58.5156 10.9375 58.5156H14.6016C14.9102 58.5152 15.2125 58.4278 15.4737 58.2634C15.7349 58.0989 15.9444 57.8641 16.0781 57.5859C17.1854 55.2447 18.9349 53.2661 21.1229 51.8805C23.311 50.4949 25.8476 49.7592 28.4375 49.7592C31.0274 49.7592 33.564 50.4949 35.7521 51.8805C37.9401 53.2661 39.6896 55.2447 40.7969 57.5859C40.9306 57.8641 41.1401 58.0989 41.4013 58.2634C41.6625 58.4278 41.9648 58.5152 42.2734 58.5156H59.0625C60.0778 58.5156 61.0515 58.1123 61.7694 57.3944C62.4873 56.6765 62.8906 55.7028 62.8906 54.6875V15.3125C62.8906 14.2972 62.4873 13.3235 61.7694 12.6056C61.0515 11.8877 60.0778 11.4844 59.0625 11.4844ZM21.3281 39.375C21.3281 37.9689 21.7451 36.5944 22.5263 35.4252C23.3075 34.2561 24.4178 33.3449 25.7169 32.8068C27.0159 32.2687 28.4454 32.1279 29.8245 32.4022C31.2036 32.6765 32.4703 33.3536 33.4646 34.3479C34.4589 35.3422 35.136 36.6089 35.4103 37.988C35.6846 39.3671 35.5438 40.7966 35.0057 42.0956C34.4676 43.3947 33.5564 44.505 32.3873 45.2862C31.2181 46.0674 29.8436 46.4844 28.4375 46.4844C26.5542 46.4772 24.7501 45.7258 23.4184 44.3941C22.0867 43.0624 21.3353 41.2583 21.3281 39.375ZM59.6094 54.6875C59.6094 54.8325 59.5518 54.9716 59.4492 55.0742C59.3466 55.1768 59.2075 55.2344 59.0625 55.2344H43.2852C41.371 51.8002 38.3278 49.1338 34.6719 47.6875C36.4165 46.379 37.7052 44.5548 38.3555 42.4731C39.0057 40.3915 38.9845 38.1581 38.2949 36.0892C37.6053 34.0203 36.2822 32.2208 34.513 30.9457C32.7438 29.6705 30.6183 28.9844 28.4375 28.9844C26.2567 28.9844 24.1312 29.6705 22.362 30.9457C20.5928 32.2208 19.2697 34.0203 18.5801 36.0892C17.8905 38.1581 17.8693 40.3915 18.5195 42.4731C19.1698 44.5548 20.4585 46.379 22.2031 47.6875C18.5472 49.1338 15.504 51.8002 13.5898 55.2344H10.9375C10.7946 55.2277 10.6593 55.168 10.5582 55.0668C10.457 54.9657 10.3973 54.8304 10.3906 54.6875V15.3125C10.3906 15.1675 10.4482 15.0284 10.5508 14.9258C10.6534 14.8232 10.7925 14.7656 10.9375 14.7656H59.0625C59.2075 14.7656 59.3466 14.8232 59.4492 14.9258C59.5518 15.0284 59.6094 15.1675 59.6094 15.3125V54.6875ZM54.1406 21.875V48.125C54.1406 48.5601 53.9678 48.9774 53.6601 49.2851C53.3524 49.5928 52.9351 49.7656 52.5 49.7656H48.125C47.6899 49.7656 47.2726 49.5928 46.9649 49.2851C46.6572 48.9774 46.4844 48.5601 46.4844 48.125C46.4844 47.6899 46.6572 47.2726 46.9649 46.9649C47.2726 46.6572 47.6899 46.4844 48.125 46.4844H50.8594V23.5156H19.1406V26.25C19.1406 26.6851 18.9678 27.1024 18.6601 27.4101C18.3524 27.7178 17.9351 27.8906 17.5 27.8906C17.0649 27.8906 16.6476 27.7178 16.3399 27.4101C16.0322 27.1024 15.8594 26.6851 15.8594 26.25V21.875C15.8594 21.4399 16.0322 21.0226 16.3399 20.7149C16.6476 20.4072 17.0649 20.2344 17.5 20.2344H52.5C52.9351 20.2344 53.3524 20.4072 53.6601 20.7149C53.9678 21.0226 54.1406 21.4399 54.1406 21.875Z" fill="#057CF2"/>
</g>
</svg>
